<svg width="18" height="18" viewBox="0 0 18 18" fill="none" xmlns="http://www.w3.org/2000/svg">
<path d="M9.00033 6.38515C8.33728 6.38515 7.7014 6.64854 7.23256 7.11738C6.76372 7.58623 6.50033 8.22211 6.50033 8.88515C6.50033 9.54819 6.76372 10.1841 7.23256 10.6529C7.7014 11.1218 8.33728 11.3852 9.00033 11.3852C9.66337 11.3852 10.2993 11.1218 10.7681 10.6529C11.2369 10.1841 11.5003 9.54819 11.5003 8.88515C11.5003 8.22211 11.2369 7.58623 10.7681 7.11738C10.2993 6.64854 9.66337 6.38515 9.00033 6.38515ZM9.00033 4.71849C10.1054 4.71849 11.1652 5.15747 11.9466 5.93887C12.728 6.72028 13.167 7.78008 13.167 8.88515C13.167 9.99022 12.728 11.05 11.9466 11.8314C11.1652 12.6128 10.1054 13.0518 9.00033 13.0518C7.89526 13.0518 6.83545 12.6128 6.05405 11.8314C5.27265 11.05 4.83366 9.99022 4.83366 8.88515C4.83366 7.78008 5.27265 6.72028 6.05405 5.93887C6.83545 5.15747 7.89526 4.71849 9.00033 4.71849ZM14.417 4.51015C14.417 4.78642 14.3072 5.05137 14.1119 5.24672C13.9165 5.44207 13.6516 5.55182 13.3753 5.55182C13.0991 5.55182 12.8341 5.44207 12.6388 5.24672C12.4434 5.05137 12.3337 4.78642 12.3337 4.51015C12.3337 4.23388 12.4434 3.96893 12.6388 3.77358C12.8341 3.57823 13.0991 3.46849 13.3753 3.46849C13.6516 3.46849 13.9165 3.57823 14.1119 3.77358C14.3072 3.96893 14.417 4.23388 14.417 4.51015ZM9.00033 2.21849C6.93866 2.21849 6.60199 2.22432 5.64283 2.26682C4.98949 2.29765 4.55116 2.38515 4.14449 2.54349C3.80417 2.66843 3.4965 2.8687 3.24449 3.12932C2.98366 3.38132 2.78312 3.68897 2.65783 4.02932C2.49949 4.43765 2.41199 4.87515 2.38199 5.52765C2.33866 6.44765 2.33366 6.76932 2.33366 8.88515C2.33366 10.9468 2.33949 11.2835 2.38199 12.2427C2.41283 12.8952 2.50033 13.3343 2.65783 13.7402C2.79949 14.1027 2.96616 14.3635 3.24283 14.6402C3.52366 14.9202 3.78449 15.0877 4.14283 15.226C4.55449 15.3852 4.99283 15.4735 5.64283 15.5035C6.56283 15.5468 6.88449 15.5518 9.00033 15.5518C11.062 15.5518 11.3987 15.546 12.3578 15.5035C13.0095 15.4727 13.4487 15.3852 13.8553 15.2277C14.1951 15.1021 14.5026 14.9022 14.7553 14.6427C15.0362 14.3618 15.2037 14.101 15.342 13.7427C15.5003 13.3318 15.5887 12.8927 15.6187 12.2427C15.662 11.3227 15.667 11.001 15.667 8.88515C15.667 6.82349 15.6612 6.48682 15.6187 5.52765C15.5878 4.87599 15.5003 4.43599 15.342 4.02932C15.2164 3.68932 15.0162 3.38179 14.7562 3.12932C14.5043 2.86836 14.1966 2.66779 13.8562 2.54265C13.4478 2.38432 13.0095 2.29682 12.3578 2.26682C11.4378 2.22349 11.1162 2.21849 9.00033 2.21849ZM9.00033 0.551819C11.2645 0.551819 11.547 0.560152 12.4353 0.601819C13.3228 0.643485 13.927 0.782652 14.4587 0.989319C15.0087 1.20099 15.472 1.48765 15.9353 1.95015C16.3591 2.36673 16.687 2.87064 16.8962 3.42682C17.102 3.95765 17.242 4.56265 17.2837 5.45015C17.3228 6.33849 17.3337 6.62099 17.3337 8.88515C17.3337 11.1493 17.3253 11.4318 17.2837 12.3202C17.242 13.2077 17.102 13.8118 16.8962 14.3435C16.6876 14.9 16.3596 15.404 15.9353 15.8202C15.5186 16.2438 15.0147 16.5716 14.4587 16.781C13.9278 16.9868 13.3228 17.1268 12.4353 17.1685C11.547 17.2077 11.2645 17.2185 9.00033 17.2185C6.73616 17.2185 6.45366 17.2102 5.56533 17.1685C4.67782 17.1268 4.07366 16.9868 3.54199 16.781C2.9856 16.5722 2.4816 16.2443 2.06533 15.8202C1.6415 15.4036 1.3136 14.8997 1.10449 14.3435C0.897826 13.8127 0.758659 13.2077 0.716992 12.3202C0.677825 11.4318 0.666992 11.1493 0.666992 8.88515C0.666992 6.62099 0.675325 6.33849 0.716992 5.45015C0.758659 4.56182 0.897826 3.95849 1.10449 3.42682C1.31302 2.8703 1.641 2.36625 2.06533 1.95015C2.48172 1.52618 2.98568 1.19826 3.54199 0.989319C4.07366 0.782652 4.67699 0.643485 5.56533 0.601819C6.45366 0.562652 6.73616 0.551819 9.00033 0.551819Z" fill="white"/>
</svg>
