<svg width="18" height="15" viewBox="0 0 18 15" fill="none" xmlns="http://www.w3.org/2000/svg">
<path d="M17.4683 2.59847C16.8321 2.87988 16.1574 3.06469 15.4666 3.1468C16.1947 2.71133 16.7397 2.02598 16.9999 1.21846C16.3166 1.62513 15.5674 1.91013 14.7866 2.0643C14.2621 1.50311 13.5669 1.13093 12.8091 1.00562C12.0512 0.880304 11.2732 1.00887 10.596 1.37134C9.91875 1.73381 9.38025 2.30987 9.06418 3.00996C8.74812 3.71005 8.67221 4.49495 8.84826 5.24263C7.46251 5.17318 6.10687 4.81307 4.86933 4.18569C3.63179 3.5583 2.54003 2.67767 1.66492 1.60097C1.35516 2.13301 1.19238 2.73782 1.19326 3.35346C1.19326 4.5618 1.80826 5.6293 2.74326 6.2543C2.18993 6.23688 1.64878 6.08745 1.16492 5.81847V5.8618C1.16509 6.66655 1.44356 7.44648 1.95313 8.06935C2.46269 8.69222 3.17199 9.11969 3.96076 9.2793C3.4471 9.4185 2.90851 9.43901 2.38576 9.3393C2.60814 10.032 3.04159 10.6378 3.62542 11.0719C4.20924 11.506 4.9142 11.7466 5.64159 11.7601C4.91866 12.3279 4.0909 12.7476 3.20566 12.9953C2.32041 13.2429 1.39503 13.3137 0.482422 13.2035C2.0755 14.228 3.93 14.7719 5.82409 14.7701C12.2349 14.7701 15.7408 9.4593 15.7408 4.85347C15.7408 4.70347 15.7366 4.5518 15.7299 4.40347C16.4123 3.91027 17.0013 3.29931 17.4691 2.5993L17.4683 2.59847Z" fill="white"/>
</svg>
