<svg width="60" height="60" viewBox="0 0 60 60" fill="none" xmlns="http://www.w3.org/2000/svg">
<path d="M30.0006 60C21.9911 60 14.4492 56.8819 8.78999 51.211C3.1183 45.551 0.000976562 38.0091 0.000976562 29.9996C0.000976562 21.9901 3.1183 14.4482 8.78999 8.78901C14.4492 3.11732 21.9911 0 30.0006 0C38.0101 0 45.552 3.11732 51.2112 8.78901C56.8829 14.4599 60.0002 21.9901 60.0002 29.9996C60.0002 38.0091 56.8829 45.551 51.2112 51.211C45.552 56.8819 38.0101 60 30.0006 60ZM30.0006 1.7983C22.4704 1.7983 15.3843 4.73579 10.0605 10.0596C4.73677 15.3833 1.79928 22.4702 1.79928 29.9996C1.79928 37.5298 4.73677 44.6159 10.0605 49.9397C15.3843 55.2634 22.4704 58.2009 30.0006 58.2009C37.5308 58.2009 44.6169 55.2634 49.9406 49.9397C55.2644 44.6159 58.2019 37.5298 58.2019 29.9996C58.2019 22.4702 55.2644 15.3833 49.9406 10.0596C44.6169 4.73579 37.5308 1.7983 30.0006 1.7983Z" fill="white"/>
<path d="M32.2832 23L39.0003 30L32.2832 37" stroke="white" stroke-width="2" stroke-linecap="round" stroke-linejoin="round"/>
<line x1="37.7344" y1="30.0317" x2="22.0013" y2="30.0317" stroke="white" stroke-width="2" stroke-linecap="round"/>
</svg>
