<svg width="178" height="40" viewBox="0 0 178 40" fill="none" xmlns="http://www.w3.org/2000/svg">
<path d="M88.7935 35.8604C90.1225 36.6773 92.0658 37.3582 94.1115 37.3582C97.1453 37.3582 98.918 35.7582 98.918 33.4435C98.918 31.2982 97.6908 30.0731 94.5886 28.8813C90.8406 27.5535 88.521 25.6131 88.521 22.3788C88.521 18.8041 91.4869 16.1489 95.952 16.1489C98.3041 16.1489 100.008 16.6932 101.031 17.2724L100.213 19.6893C98.8721 18.9691 97.3723 18.5946 95.8497 18.5997C92.7136 18.5997 91.5209 20.4713 91.5209 22.0394C91.5209 24.1841 92.9182 25.2393 96.0883 26.465C99.974 27.9622 101.954 29.8343 101.954 33.2047C101.954 36.7456 99.3287 39.8095 93.9089 39.8095C91.6931 39.8095 89.2731 39.1625 88.0459 38.3456L88.7935 35.8604Z" fill="white"/>
<path d="M109.417 18.2607V22.9928H113.712V25.2742H109.417V34.1582C109.417 36.2008 109.996 37.3581 111.667 37.3581C112.451 37.3581 113.03 37.2569 113.405 37.1558L113.542 39.4027C112.962 39.641 112.041 39.8109 110.883 39.8109C109.485 39.8109 108.36 39.3683 107.644 38.5514C106.792 37.6662 106.485 36.2023 106.485 34.2619V25.2727H103.93V22.9913H106.486V19.0423L109.417 18.2607Z" fill="white"/>
<path d="M130.892 34.9752C130.892 36.6774 130.926 38.1757 131.029 39.4691H128.37L128.199 36.7796H128.131C127.347 38.1074 125.609 39.8439 122.677 39.8439C120.086 39.8439 116.984 38.4139 116.984 32.6261V22.9915H119.985V32.1157C119.985 35.2479 120.939 37.3582 123.666 37.3582C125.678 37.3582 127.075 35.9626 127.62 34.6348C127.802 34.1446 127.895 33.6259 127.893 33.1031V22.9915H130.893L130.892 34.9752Z" fill="white"/>
<path d="M150.117 15.2976V35.2134C150.117 36.6773 150.151 38.3456 150.253 39.469H147.56L147.424 36.6095H147.356C146.435 38.4477 144.424 39.8438 141.734 39.8438C137.746 39.8438 134.678 36.4735 134.678 31.4687C134.644 25.9875 138.053 22.6166 142.073 22.6166C144.595 22.6166 146.3 23.8083 147.05 25.1361H147.118V15.2976H150.117ZM147.117 29.6983C147.117 29.324 147.083 28.8131 146.981 28.4387C146.538 26.5322 144.901 24.9662 142.651 24.9662C139.55 24.9662 137.709 27.6896 137.709 31.3326C137.709 34.6712 139.345 37.4265 142.584 37.4265C144.595 37.4265 146.433 36.0986 146.981 33.8517C147.082 33.4435 147.117 33.0348 147.117 32.5583V29.6983Z" fill="white"/>
<path d="M158.433 18.3618C158.468 19.3831 157.718 20.2005 156.524 20.2005C155.468 20.2005 154.718 19.3831 154.718 18.3618C154.718 17.3067 155.502 16.4902 156.592 16.4902C157.717 16.4902 158.433 17.3061 158.433 18.3618ZM155.093 39.4694V22.9913H158.092V39.4689L155.093 39.4694Z" fill="white"/>
<path d="M178 31.0943C178 37.1881 173.773 39.8452 169.785 39.8452C165.319 39.8452 161.876 36.5765 161.876 31.3679C161.876 25.8543 165.489 22.6169 170.057 22.6169C174.795 22.6169 178 26.0556 178 31.0943ZM164.909 31.2642C164.909 34.8729 166.989 37.5968 169.92 37.5968C172.784 37.5968 174.931 34.9073 174.931 31.1964C174.931 28.4047 173.534 24.8639 169.989 24.8639C166.444 24.8639 164.909 28.1321 164.909 31.2642Z" fill="white"/>
<path d="M69.1031 1.43733e-08H32.282C31.9503 3.57847e-05 31.6268 0.102867 31.3561 0.294309C31.0854 0.485751 30.8808 0.75637 30.7707 1.06883L20.9652 28.8656L11.1071 1.0663C10.9965 0.754395 10.7919 0.48438 10.5213 0.293423C10.2507 0.102466 9.92757 -4.43183e-05 9.59627 1.43733e-08H1.6025C1.17753 0.000134094 0.770008 0.168797 0.46951 0.468914C0.169012 0.769031 0.00013425 1.17604 0 1.60047L0 38.1993C0.00013425 38.6237 0.169012 39.0307 0.46951 39.3308C0.770008 39.631 1.17753 39.7996 1.6025 39.7998H6.60855C7.03351 39.7996 7.44104 39.631 7.74154 39.3308C8.04204 39.0307 8.21091 38.6237 8.21105 38.1993V28.9202L7.39005 10.1673L17.7364 38.7436C17.8484 39.0529 18.0532 39.3203 18.3228 39.5093C18.5924 39.6983 18.9138 39.7997 19.2432 39.7998H22.6331C22.9624 39.7997 23.2837 39.6983 23.5533 39.5094C23.8229 39.3205 24.0277 39.0533 24.1398 38.7441L34.513 10.141L33.692 28.9202V38.1993C33.692 38.6238 33.8609 39.0308 34.1614 39.331C34.4619 39.6311 34.8695 39.7998 35.2945 39.7998H40.3279C40.7529 39.7996 41.1604 39.631 41.4609 39.3308C41.7614 39.0307 41.9303 38.6237 41.9304 38.1993V6.64215H50.2874V38.1993C50.2875 38.6237 50.4564 39.0307 50.7569 39.3308C51.0574 39.631 51.4649 39.7996 51.8899 39.7998H56.8959C57.3209 39.7996 57.7284 39.631 58.0289 39.3308C58.3294 39.0307 58.4983 38.6237 58.4984 38.1993V6.64215H69.1026C69.313 6.64215 69.5213 6.60074 69.7157 6.52031C69.9101 6.43987 70.0868 6.32197 70.2355 6.17335C70.3843 6.02472 70.5023 5.84829 70.5828 5.65411C70.6632 5.45994 70.7046 5.25183 70.7046 5.04168V1.60199C70.7048 1.39177 70.6635 1.18357 70.5831 0.989281C70.5027 0.794994 70.3848 0.618425 70.2361 0.46966C70.0874 0.320896 69.9108 0.202849 69.7164 0.122264C69.522 0.0416784 69.3136 0.000132802 69.1031 1.43733e-08Z" fill="white"/>
<path d="M80.9717 0H75.9656C75.5406 0.00013408 75.1331 0.168797 74.8326 0.468914C74.5321 0.769031 74.3632 1.17604 74.3631 1.60047V16.1276H59.8271V22.7424H74.3631V38.1993C74.3632 38.6237 74.5321 39.0307 74.8326 39.3308C75.1331 39.631 75.5406 39.7996 75.9656 39.7998H80.9717C81.3966 39.7996 81.8042 39.631 82.1047 39.3308C82.4052 39.0307 82.574 38.6237 82.5742 38.1993V1.60047C82.574 1.17604 82.4052 0.769031 82.1047 0.468914C81.8042 0.168797 81.3966 0.00013408 80.9717 0Z" fill="white"/>
</svg>
