<svg width="178" height="41" viewBox="0 0 178 41" fill="none" xmlns="http://www.w3.org/2000/svg">
<path d="M88.7935 36.438C90.1225 37.2549 92.0658 37.9358 94.1115 37.9358C97.1453 37.9358 98.918 36.3358 98.918 34.0211C98.918 31.8759 97.6908 30.6507 94.5886 29.459C90.8406 28.1312 88.521 26.1908 88.521 22.9565C88.521 19.3817 91.4869 16.7266 95.952 16.7266C98.3041 16.7266 100.008 17.2708 101.031 17.85L100.213 20.2669C98.8721 19.5467 97.3723 19.1722 95.8497 19.1773C92.7136 19.1773 91.5209 21.0489 91.5209 22.617C91.5209 24.7618 92.9182 25.817 96.0883 27.0426C99.974 28.5399 101.954 30.412 101.954 33.7824C101.954 37.3232 99.3287 40.3871 93.9089 40.3871C91.6931 40.3871 89.2731 39.7401 88.0459 38.9232L88.7935 36.438Z" fill="white"/>
<path d="M109.417 18.8384V23.5705H113.712V25.8518H109.417V34.7358C109.417 36.7784 109.996 37.9357 111.667 37.9357C112.451 37.9357 113.03 37.8346 113.405 37.7334L113.542 39.9803C112.962 40.2186 112.041 40.3886 110.883 40.3886C109.485 40.3886 108.36 39.9459 107.644 39.129C106.792 38.2438 106.485 36.7799 106.485 34.8395V25.8503H103.93V23.569H106.486V19.6199L109.417 18.8384Z" fill="white"/>
<path d="M130.892 35.5526C130.892 37.2548 130.926 38.7531 131.029 40.0465H128.37L128.199 37.3569H128.131C127.347 38.6848 125.609 40.4213 122.677 40.4213C120.086 40.4213 116.984 38.9913 116.984 33.2035V23.5688H119.985V32.6931C119.985 35.8253 120.939 37.9356 123.666 37.9356C125.678 37.9356 127.075 36.54 127.62 35.2122C127.802 34.722 127.895 34.2033 127.893 33.6805V23.5688H130.893L130.892 35.5526Z" fill="white"/>
<path d="M150.117 15.875V35.7908C150.117 37.2547 150.151 38.923 150.253 40.0464H147.56L147.424 37.1869H147.356C146.435 39.0251 144.424 40.4212 141.734 40.4212C137.746 40.4212 134.678 37.0508 134.678 32.0461C134.644 26.5649 138.053 23.194 142.073 23.194C144.595 23.194 146.3 24.3857 147.05 25.7135H147.118V15.875H150.117ZM147.117 30.2757C147.117 29.9014 147.083 29.3905 146.981 29.0161C146.538 27.1096 144.901 25.5436 142.651 25.5436C139.55 25.5436 137.709 28.267 137.709 31.91C137.709 35.2486 139.345 38.0038 142.584 38.0038C144.595 38.0038 146.433 36.676 146.981 34.4291C147.082 34.0209 147.117 33.6122 147.117 33.1357V30.2757Z" fill="white"/>
<path d="M158.433 18.9395C158.468 19.9608 157.718 20.7782 156.524 20.7782C155.468 20.7782 154.718 19.9608 154.718 18.9395C154.718 17.8843 155.502 17.0679 156.592 17.0679C157.717 17.0679 158.433 17.8838 158.433 18.9395ZM155.093 40.047V23.5689H158.092V40.0465L155.093 40.047Z" fill="white"/>
<path d="M178 31.6717C178 37.7655 173.773 40.4226 169.785 40.4226C165.319 40.4226 161.876 37.1539 161.876 31.9453C161.876 26.4317 165.489 23.1943 170.057 23.1943C174.795 23.1943 178 26.633 178 31.6717ZM164.909 31.8416C164.909 35.4503 166.989 38.1742 169.92 38.1742C172.784 38.1742 174.931 35.4847 174.931 31.7738C174.931 28.9821 173.534 25.4413 169.989 25.4413C166.444 25.4413 164.909 28.7095 164.909 31.8416Z" fill="white"/>
<path d="M69.1031 0.577637H32.282C31.9503 0.577673 31.6268 0.680504 31.3561 0.871946C31.0854 1.06339 30.8808 1.33401 30.7707 1.64647L20.9652 29.4432L11.1071 1.64394C10.9965 1.33203 10.7919 1.06202 10.5213 0.87106C10.2507 0.680103 9.92757 0.577592 9.59627 0.577637H1.6025C1.17753 0.577771 0.770008 0.746434 0.46951 1.04655C0.169012 1.34667 0.00013425 1.75368 0 2.1781L0 38.7769C0.00013425 39.2014 0.169012 39.6084 0.46951 39.9085C0.770008 40.2086 1.17753 40.3773 1.6025 40.3774H6.60855C7.03351 40.3773 7.44104 40.2086 7.74154 39.9085C8.04204 39.6084 8.21091 39.2014 8.21105 38.7769V29.4979L7.39005 10.745L17.7364 39.3212C17.8484 39.6306 18.0532 39.898 18.3228 40.0869C18.5924 40.2759 18.9138 40.3774 19.2432 40.3774H22.6331C22.9624 40.3773 23.2837 40.2759 23.5533 40.0871C23.8229 39.8982 24.0277 39.6309 24.1398 39.3217L34.513 10.7187L33.692 29.4979V38.7769C33.692 39.2014 33.8609 39.6085 34.1614 39.9086C34.4619 40.2088 34.8695 40.3774 35.2945 40.3774H40.3279C40.7529 40.3773 41.1604 40.2086 41.4609 39.9085C41.7614 39.6084 41.9303 39.2014 41.9304 38.7769V7.21978H50.2874V38.7769C50.2875 39.2014 50.4564 39.6084 50.7569 39.9085C51.0574 40.2086 51.4649 40.3773 51.8899 40.3774H56.8959C57.3209 40.3773 57.7284 40.2086 58.0289 39.9085C58.3294 39.6084 58.4983 39.2014 58.4984 38.7769V7.21978H69.1026C69.313 7.21978 69.5213 7.17838 69.7157 7.09794C69.9101 7.01751 70.0868 6.89961 70.2355 6.75099C70.3843 6.60236 70.5023 6.42592 70.5828 6.23175C70.6632 6.03757 70.7046 5.82947 70.7046 5.61931V2.17962C70.7048 1.9694 70.6635 1.7612 70.5831 1.56692C70.5027 1.37263 70.3848 1.19606 70.2361 1.0473C70.0874 0.898532 69.9108 0.780486 69.7164 0.699901C69.522 0.619315 69.3136 0.57777 69.1031 0.577637Z" fill="white"/>
<path d="M80.9717 0.577637H75.9656C75.5406 0.577771 75.1331 0.746434 74.8326 1.04655C74.5321 1.34667 74.3632 1.75368 74.3631 2.1781V16.7052H59.8271V23.3201H74.3631V38.7769C74.3632 39.2014 74.5321 39.6084 74.8326 39.9085C75.1331 40.2086 75.5406 40.3773 75.9656 40.3774H80.9717C81.3966 40.3773 81.8042 40.2086 82.1047 39.9085C82.4052 39.6084 82.574 39.2014 82.5742 38.7769V2.1781C82.574 1.75368 82.4052 1.34667 82.1047 1.04655C81.8042 0.746434 81.3966 0.577771 80.9717 0.577637Z" fill="white"/>
</svg>
