<svg width="71" height="71" viewBox="0 0 71 71" fill="none" xmlns="http://www.w3.org/2000/svg">
<path d="M35.4998 8.54639C30.0388 8.54639 24.7005 10.1657 20.1599 13.1997C15.6193 16.2336 12.0803 20.5459 9.99045 25.5912C7.90064 30.6364 7.35384 36.1881 8.41922 41.5442C9.4846 46.9002 12.1143 51.82 15.9758 55.6815C19.8373 59.543 24.7571 62.1727 30.1131 63.2381C35.4692 64.3034 41.0208 63.7566 46.0661 61.6668C51.1114 59.577 55.4236 56.038 58.4576 51.4974C61.4915 46.9568 63.1109 41.6185 63.1109 36.1575C63.1023 28.8372 60.1905 21.8192 55.0143 16.643C49.8381 11.4668 42.8201 8.555 35.4998 8.54639ZM34.7509 24.6312C29.9939 24.5055 25.3635 23.071 21.3686 20.4852C22.8167 18.0082 24.7473 15.8471 27.0461 14.13C29.3448 12.413 31.9648 11.1749 34.7509 10.4891V24.6312ZM34.7509 26.1398V35.4086H17.0815C17.1659 30.6556 18.3786 25.9907 20.6197 21.7984C24.8426 24.5147 29.7314 26.0166 34.7509 26.1398ZM34.7509 36.9064V46.1752C29.7387 46.3017 24.8578 47.8036 20.6415 50.5166C18.3897 46.3274 17.1693 41.6616 17.0815 36.9064H34.7509ZM34.7509 47.6838V61.7933C31.9717 61.0909 29.3604 59.8412 27.07 58.1174C24.7797 56.3936 22.8561 54.2302 21.412 51.7539C25.4008 49.1994 30.0155 47.7913 34.7509 47.6838ZM36.2487 47.6838C40.9787 47.8023 45.5853 49.2177 49.5658 51.7756C48.1176 54.2443 46.1954 56.4023 43.9099 58.1252C41.6244 59.8482 39.0207 61.1022 36.2487 61.815V47.6838ZM36.2487 46.1752V36.9064H53.918C53.8201 41.6526 52.5923 46.3071 50.3364 50.484C46.1211 47.7903 41.2496 46.3004 36.2487 46.1752ZM36.2487 35.4086V26.1398C41.2603 26.0099 46.1404 24.5084 50.3581 21.7984C52.6025 25.9861 53.819 30.6474 53.9072 35.3978L36.2487 35.4086ZM36.2487 24.6312V10.5217C39.026 11.2114 41.638 12.4477 43.932 14.1584C46.226 15.8691 48.156 18.0199 49.6092 20.4852C45.623 23.0723 40.9992 24.5071 36.2487 24.6312ZM41.1544 10.7171C45.8334 11.7424 50.138 14.0411 53.5924 17.3594C52.7282 18.1886 51.811 18.9609 50.8465 19.6711C48.507 15.8468 45.1517 12.747 41.1544 10.7171ZM20.1422 19.6603C19.1789 18.9568 18.2651 18.1881 17.4071 17.3594C20.8275 14.0647 25.0835 11.7678 29.7149 10.7171C25.7626 12.7615 22.4503 15.8559 20.1422 19.6603ZM19.3825 20.9627C16.971 25.4017 15.6678 30.3576 15.5838 35.4086H9.40816C9.58647 29.0916 12.0552 23.0548 16.3544 18.423C17.3026 19.3398 18.3145 20.1885 19.3825 20.9627ZM15.5838 36.9064C15.6779 41.9532 16.9924 46.9022 19.415 51.3306C18.3337 52.1086 17.3108 52.9647 16.3544 53.892C12.0552 49.2602 9.58647 43.2234 9.40816 36.9064H15.5838ZM20.1856 52.6221C22.5025 56.458 25.834 59.5792 29.8126 61.6413C25.1417 60.5949 20.8495 58.2817 17.4071 54.9556C18.28 54.1164 19.2082 53.3368 20.1856 52.6221ZM50.8031 52.6221C51.7841 53.3405 52.716 54.1237 53.5924 54.9665C50.1194 58.3252 45.778 60.6481 41.0567 61.6739C45.0803 59.6113 48.4538 56.4744 50.8031 52.6113V52.6221ZM51.5737 51.3306C53.9984 46.9064 55.3166 41.9613 55.4158 36.9172H61.5914C61.4131 43.2342 58.9444 49.271 54.6452 53.9028C53.6856 52.9683 52.659 52.1049 51.5737 51.3197V51.3306ZM55.4158 35.4195C55.328 30.3711 54.021 25.4187 51.6063 20.9844C52.6804 20.2099 53.6961 19.3574 54.6452 18.4339C58.9444 23.0657 61.4131 29.1024 61.5914 35.4195H55.4158Z" fill="white"/>
</svg>
